<?xml version="1.0" standalone="no"?>
<!DOCTYPE svg PUBLIC "-//W3C//DTD SVG 20010904//EN"
 "http://www.w3.org/TR/2001/REC-SVG-20010904/DTD/svg10.dtd">
<svg version="1.0" xmlns="http://www.w3.org/2000/svg"
 width="1254.000000pt" height="1254.000000pt" viewBox="0 0 1254.000000 1254.000000"
 preserveAspectRatio="xMidYMid meet">

 <defs>
  <linearGradient id="cyberBrainGradient" x1="0%" y1="0%" x2="100%" y2="100%">
    <stop offset="0%" stop-color="#97f6fb" />
    <stop offset="100%" stop-color="#9bbcfe" />
  </linearGradient>
</defs>
 
<g transform="translate(0.000000,1254.000000) scale(0.100000,-0.100000)"
fill="#FFFFFF" stroke="none">
<path fill="#00E5FF" d="M5930 10189 c-47 -5 -151 -20 -232 -34 -1160 -194 -2107 -916 -2567
-1958 -68 -152 -154 -403 -147 -424 7 -16 110 -18 187 -2 l54 11 50 136 c87
241 246 538 402 749 376 513 917 904 1547 1117 638 216 1333 231 1963 40 744
-225 1383 -720 1797 -1392 61 -98 191 -355 221 -434 17 -47 33 -68 20 -28 -5
15 -3 18 9 14 8 -3 24 -1 35 6 18 9 21 8 21 -7 0 -13 3 -14 12 -5 8 8 8 15 -1
26 -10 12 -8 19 8 35 12 12 21 25 21 30 0 15 32 22 46 10 11 -9 14 -8 14 2 0
11 2 11 10 -1 17 -26 11 -5 -19 66 -45 109 -53 124 -64 117 -6 -3 -7 -1 -3 5
9 14 -25 83 -37 75 -6 -3 -7 -1 -3 6 8 13 -63 151 -145 281 -356 565 -894
1026 -1509 1293 -316 137 -698 236 -1035 267 -129 12 -533 11 -655 -1z m3364
-1875 c3 -8 2 -12 -4 -9 -6 3 -10 10 -10 16 0 14 7 11 14 -7z m-126 -189 c-3
-3 -9 2 -12 12 -6 14 -5 15 5 6 7 -7 10 -15 7 -18z"/>
<path fill="url(#cyberBrainGradient)" d="M6975 9071 c-16 -4 -44 -15 -62 -24 -41 -22 -509 -511 -533 -559 -19
-35 -20 -91 -20 -2043 -1 -1879 0 -2008 16 -2026 25 -28 72 -24 106 8 38 37
40 102 3 139 l-25 25 0 1909 c0 1178 4 1918 9 1934 12 30 451 493 494 521 28
18 52 20 228 23 124 2 212 -1 238 -8 61 -16 433 -327 478 -399 22 -35 23 -45
23 -261 0 -188 3 -229 16 -248 14 -21 21 -22 164 -22 178 0 230 -14 303 -84
87 -84 91 -99 97 -354 5 -216 6 -224 27 -242 12 -10 39 -21 60 -25 83 -15 168
-88 219 -187 28 -53 28 -54 32 -308 5 -288 -2 -348 -49 -426 -18 -28 -81 -106
-141 -173 l-109 -121 -76 0 c-76 0 -76 0 -112 39 -69 75 -163 61 -208 -29 -29
-57 -18 -104 33 -149 28 -25 44 -31 81 -31 40 0 50 5 85 40 44 44 41 43 121
41 l58 -1 -3 -247 -3 -248 -32 -67 c-40 -85 -100 -150 -172 -185 -55 -28 -58
-28 -281 -31 -188 -3 -228 -6 -242 -19 -15 -13 -18 -34 -18 -117 -1 -151 -34
-219 -133 -276 -52 -30 -53 -30 -213 -30 -111 0 -164 4 -172 12 -9 9 -12 89
-12 297 l0 286 117 117 118 118 137 0 137 0 16 -30 c34 -65 120 -89 182 -50
97 58 76 204 -34 241 -49 16 -115 -10 -143 -57 l-22 -34 -151 0 -150 0 -144
-142 -143 -142 0 -342 c0 -318 1 -342 18 -357 16 -15 47 -17 220 -17 240 0
280 10 363 91 72 70 101 139 107 256 l5 93 156 0 c86 0 183 4 215 10 163 26
296 150 352 325 23 71 24 90 24 328 l1 252 106 120 c126 144 153 182 182 258
20 54 21 76 21 350 0 284 -4 342 -20 332 -5 -3 -6 3 -3 14 9 34 -85 189 -107
176 -5 -3 -12 0 -16 6 -5 8 -2 10 7 5 8 -4 1 5 -16 19 -16 15 -59 41 -95 58
-36 17 -68 35 -72 41 -4 6 -8 88 -8 183 0 202 -14 261 -80 349 -88 116 -175
155 -367 162 l-131 4 -4 212 -3 211 -29 53 c-23 41 -74 90 -240 233 -116 100
-231 191 -256 203 -41 19 -65 21 -270 23 -124 1 -238 -2 -255 -6z m1952 -2163
c-3 -7 -5 -2 -5 12 0 14 2 19 5 13 2 -7 2 -19 0 -25z m0 -260 c-3 -8 -6 -5 -6
6 -1 11 2 17 5 13 3 -3 4 -12 1 -19z"/>
<path fill="url(#cyberBrainGradient)" d="M7135 8661 c-50 -23 -75 -65 -75 -127 0 -44 4 -51 45 -90 44 -41 45
-42 45 -105 l0 -64 -250 -250 -250 -250 0 -207 0 -206 35 -22 c19 -12 40 -31
46 -41 14 -27 -13 -199 -47 -297 -26 -76 -30 -172 -8 -179 21 -7 44 28 44 66
0 43 38 108 96 162 41 39 223 139 252 139 16 0 62 -59 62 -79 0 -6 5 -13 11
-17 8 -4 10 18 8 75 l-3 81 162 163 162 162 0 92 0 92 30 16 c94 48 91 194 -4
239 -94 44 -186 -19 -186 -128 0 -46 4 -53 45 -93 l45 -43 0 -79 0 -79 -159
-152 c-110 -104 -181 -164 -232 -194 -41 -23 -107 -63 -148 -90 -40 -26 -75
-45 -78 -42 -3 3 6 43 21 88 14 46 26 93 26 106 0 46 -27 90 -69 112 l-41 20
0 153 0 152 250 250 250 250 0 83 c0 76 2 83 23 91 69 27 99 128 58 194 -13
22 -37 41 -61 51 -50 20 -56 20 -105 -3z"/>
<path fill="#FFFFFF" d="M5670 8133 c-734 -39 -977 -93 -1176 -261 -110 -92 -309 -339 -519
-645 -62 -90 -93 -126 -103 -122 -8 3 -35 10 -61 17 -25 6 -49 13 -53 17 -4 3
4 51 18 106 29 120 29 136 6 165 -17 21 -25 22 -132 21 -63 -1 -176 -6 -250
-11 -241 -18 -293 -34 -344 -108 -37 -54 -35 -101 6 -148 18 -20 47 -43 64
-50 36 -15 215 -46 394 -69 83 -10 144 -24 182 -40 31 -14 77 -29 102 -34 26
-5 49 -11 52 -13 2 -3 -44 -8 -103 -11 -126 -7 -312 -51 -411 -97 -126 -59
-239 -155 -295 -251 -15 -25 -37 -81 -49 -125 -21 -75 -22 -99 -23 -439 0
-372 7 -482 45 -665 35 -168 99 -263 215 -316 94 -43 518 -127 980 -194 l210
-30 878 0 877 0 0 460 0 460 -806 0 c-576 0 -818 -3 -845 -11 -67 -21 -100
-60 -229 -277 -118 -199 -127 -211 -155 -212 -37 0 -389 48 -430 60 -19 5 49
8 181 9 l210 1 24 43 c56 100 205 345 232 379 16 20 54 49 86 65 l57 28 835 5
835 5 0 580 0 580 -1054 3 c-919 2 -1052 4 -1047 17 19 50 259 406 372 552
162 209 231 261 400 303 228 56 734 100 1152 100 l182 0 0 80 0 80 -227 -2
c-126 -1 -253 -3 -283 -5z m-2280 -1623 c362 -84 803 -194 889 -222 64 -21
228 -124 306 -192 l40 -35 -195 -1 c-194 0 -195 0 -256 -29 -34 -16 -74 -32
-90 -35 -44 -10 -607 51 -699 75 -22 6 -56 23 -76 37 -80 57 -111 138 -113
292 -1 113 11 155 42 146 9 -3 78 -19 152 -36z"/>
<path fill="url(#cyberBrainGradient)" d="M9230 7935 c0 -5 5 -17 10 -25 5 -8 10 -10 10 -5 0 6 -5 17 -10 25
-5 8 -10 11 -10 5z"/>
<path fill="url(#cyberBrainGradient)" d="M9277 7810 c3 -14 12 -41 20 -60 11 -30 12 -31 8 -6 -4 16 -13 43
-20 60 -11 23 -13 25 -8 6z"/>
<path fill="url(#cyberBrainGradient)" d="M8039 7567 c-19 -12 -42 -39 -52 -60 l-19 -37 -165 0 -165 0 -499
-500 -499 -501 2 -1166 c3 -1098 4 -1166 21 -1177 12 -8 22 -8 35 0 16 10 17
66 20 896 l2 886 73 64 c39 36 95 80 124 97 32 20 184 166 395 381 l343 349
43 -12 c38 -10 48 -9 79 8 53 29 75 64 75 118 0 56 -14 82 -55 107 -101 62
-231 -30 -198 -140 l11 -35 -358 -355 c-197 -195 -396 -385 -442 -422 l-85
-68 -3 227 -2 227 213 211 c118 115 332 330 475 478 l262 267 154 0 c154 0
154 0 170 -25 37 -57 109 -79 164 -51 55 28 77 63 77 119 0 110 -108 173 -196
114z"/>
<path fill="url(#cyberBrainGradient)" d="M8410 6717 c-14 -7 -36 -29 -49 -50 l-24 -37 -136 0 -136 0 -250
-256 -250 -255 -118 -3 -118 -2 -209 -209 -210 -210 0 -551 0 -550 -29 -22
c-88 -64 -45 -202 63 -202 48 0 80 19 101 60 29 55 15 109 -37 150 l-28 21 0
532 0 531 192 193 192 193 116 0 115 0 253 260 254 260 118 0 119 0 17 -29
c38 -65 137 -83 193 -35 114 96 -6 278 -139 211z"/>
<path fill="#FFFFFF" d="M2970 4954 c0 -249 4 -443 10 -463 17 -59 59 -109 115 -136 l52 -26
399 3 399 3 42 24 c48 27 86 79 102 137 13 45 15 320 3 328 -5 3 -107 14 -228
26 -434 41 -563 63 -657 112 -111 59 -169 148 -207 318 -12 52 -23 96 -26 99
-2 2 -4 -189 -4 -425z"/>
<path fill="url(#cyberBrainGradient)" d="M9010 5190 c-6 -11 -8 -20 -6 -20 3 0 10 9 16 20 6 11 8 20 6 20 -3
0 -10 -9 -16 -20z"/>
<path fill="#00E5FF" d="M8969 5123 c-22 -45 -22 -46 -9 -38 9 5 11 4 6 -4 -4 -6 -11 -9 -15
-6 -5 2 -21 -14 -36 -38 -179 -274 -446 -557 -720 -763 -468 -353 -1043 -572
-1636 -625 -187 -16 -543 -6 -724 21 -483 72 -982 266 -1346 522 -32 23 -60
40 -63 37 -44 -46 -143 -175 -139 -181 2 -5 44 -35 91 -67 438 -293 939 -482
1472 -556 156 -22 552 -31 710 -16 439 40 818 144 1198 326 474 228 859 540
1198 970 21 28 30 43 20 35 -18 -14 -19 -14 -5 7 7 12 15 20 18 18 9 -10 29
17 24 32 -4 10 -2 14 5 9 6 -3 13 -2 16 3 4 5 -2 8 -11 7 -10 -2 -19 -9 -19
-17 -1 -8 -2 -18 -3 -22 0 -5 -8 -1 -17 7 -22 23 -14 51 16 53 39 3 59 8 67
18 4 4 2 5 -4 1 -19 -11 -16 9 4 25 14 12 16 12 8 0 -5 -9 -4 -12 3 -7 18 11
3 31 -33 45 -19 7 -35 18 -35 25 0 7 -11 18 -24 26 -13 7 -26 20 -29 30 -4 16
-1 17 26 9 31 -9 47 -5 47 12 0 6 -4 8 -9 5 -5 -4 -12 0 -15 6 -5 10 -7 10
-12 1 -9 -20 -33 -3 -27 20 2 12 6 31 8 42 2 11 6 28 10 38 11 27 0 20 -16
-10z"/>
</g>
</svg>
